<?xml version="1.0" encoding="UTF-8"?>
<svg width="92px" height="100px" viewBox="0 0 92 100" version="1.1" xmlns="http://www.w3.org/2000/svg" xmlns:xlink="http://www.w3.org/1999/xlink">
    <!-- Generator: Sketch 40.2 (33826) - http://www.bohemiancoding.com/sketch -->
    <title>Shape</title>
    <desc>Created with Sketch.</desc>
    <defs></defs>
    <g id="Page-1" stroke="none" stroke-width="1" fill="none" fill-rule="evenodd">
        <path d="M38.679,98.893 L1,98.893 L1,88.904 L38.679,88.904 C41.428,88.904 47.663,88.648 50.3,88.138 C55.116,87.205 57.609,85.756 57.948,85.549 C57.948,85.549 65.171,81.676 70.72,75.113 C78.178,66.292 81.114,55.864 79.446,44.119 C77.793,32.484 72.296,23.571 63.108,17.628 C56.259,13.198 48.848,11.9 48.848,11.9 C48.823,11.894 44.924,10.989 40.05,10.989 L22.068,10.989 L22.068,1 L40.05,1 C45.732,1 50.355,1.946 51.47,2.194 C53.07,2.469 60.878,4.019 69.104,9.206 C74.41,12.552 78.853,16.735 82.311,21.639 C86.58,27.694 89.323,34.832 90.462,42.853 C91.599,50.857 90.932,58.523 88.481,65.639 C86.512,71.357 83.399,76.709 79.231,81.546 C72.861,88.936 65.927,92.871 64.345,93.714 C63.118,94.483 59.269,96.619 52.637,97.903 C48.389,98.725 40.547,98.893 38.679,98.893 L38.679,98.893 Z" id="Shape" stroke="#A4A4A4" stroke-width="2" fill="#A4A4A4"></path>
    </g>
</svg>